<?xml version="1.0" standalone="no"?><!DOCTYPE svg PUBLIC "-//W3C//DTD SVG 1.1//EN" "http://www.w3.org/Graphics/SVG/1.1/DTD/svg11.dtd"><svg t="1688457054466" class="icon" viewBox="0 0 1024 1024" version="1.1" xmlns="http://www.w3.org/2000/svg" p-id="1554" id="mx_n_1688457054468" width="36" height="36" xmlns:xlink="http://www.w3.org/1999/xlink"><path d="M844.8 646.4V640c0-96-76.8-179.2-179.2-179.2H563.2V377.6c64-19.2 115.2-83.2 115.2-153.6C672 134.4 601.6 64 512 64S352 134.4 352 224c0 70.4 44.8 134.4 115.2 153.6v89.6H352C256 460.8 179.2 544 179.2 640v6.4c-64 19.2-115.2 83.2-115.2 153.6C64 889.6 134.4 960 224 960S384 889.6 384 800c0-70.4-44.8-134.4-115.2-153.6V640c0-44.8 38.4-76.8 76.8-76.8h326.4c44.8 0 76.8 38.4 76.8 76.8v6.4c-64 19.2-115.2 83.2-115.2 153.6 0 89.6 70.4 160 160 160s160-70.4 160-160c6.4-70.4-38.4-134.4-108.8-153.6z m-556.8 153.6c0 38.4-25.6 64-64 64s-64-25.6-64-64 25.6-64 64-64 64 25.6 64 64z m224-512c-38.4 0-64-25.6-64-64s25.6-64 64-64 64 25.6 64 64-25.6 64-64 64z m288 576c-38.4 0-64-25.6-64-64s25.6-64 64-64 64 25.6 64 64-25.6 64-64 64z" p-id="1555"></path></svg>